<svg width="21" height="21" viewBox="0 0 21 21" fill="none" xmlns="http://www.w3.org/2000/svg">
<path d="M20.1547 10.6967C20.1547 9.98759 20.0911 9.30579 19.9729 8.65119H10.5547V12.5194H15.9365C15.7047 13.7694 15.0002 14.8285 13.9411 15.5376V18.0467H17.1729C19.0638 16.3058 20.1547 13.7421 20.1547 10.6967Z" fill="#4285F4"/>
<path d="M10.5547 20.4694C13.2547 20.4694 15.5183 19.5739 17.1728 18.0467L13.941 15.5376C13.0456 16.1376 11.9001 16.4921 10.5547 16.4921C7.95006 16.4921 5.74555 14.733 4.95916 12.3694H1.61826V14.9603C3.26376 18.2285 6.64556 20.4694 10.5547 20.4694Z" fill="#34A853"/>
<path d="M4.95916 12.3694C4.75916 11.7694 4.64556 11.1285 4.64556 10.4694C4.64556 9.81029 4.75916 9.16939 4.95916 8.56939V5.97849H1.61826C0.941057 7.32849 0.554657 8.85579 0.554657 10.4694C0.554657 12.083 0.941057 13.6103 1.61826 14.9603L4.95916 12.3694Z" fill="#FBBC04"/>
<path d="M10.5547 4.44669C12.0228 4.44669 13.341 4.95119 14.3774 5.94209L17.2456 3.07389C15.5138 1.46029 13.2501 0.469391 10.5547 0.469391C6.64556 0.469391 3.26376 2.71029 1.61826 5.97849L4.95916 8.56939C5.74555 6.20579 7.95006 4.44669 10.5547 4.44669Z" fill="#E94235"/>
</svg>
