<svg width="80" height="28" viewBox="0 0 80 28" fill="none" xmlns="http://www.w3.org/2000/svg">
<path d="M0 14C0 6.56108 17.9089 0.530615 40 0.530615C62.0909 0.530615 80 6.56108 80 14C80 21.4388 62.0909 27.4694 40 27.4694C17.9089 27.4694 0 21.4388 0 14ZM40 25.9433C59.5879 25.9433 75.468 20.596 75.468 14C75.468 7.40394 59.5879 2.05671 40 2.05671C20.4119 2.05671 4.53192 7.40394 4.53192 14C4.53192 20.596 20.4119 25.9433 40 25.9433ZM40 24.5855C57.3612 24.5855 71.4358 19.8461 71.4358 14C71.4358 8.1539 57.3612 3.4145 40 3.4145C22.6388 3.4145 8.5644 8.1539 8.5644 14C8.5644 19.8461 22.6388 24.5855 40 24.5855ZM13.0963 14C13.0963 8.99661 25.1417 4.94059 40 4.94059C54.8582 4.94059 66.9037 8.99661 66.9037 14C66.9037 19.0033 54.8582 23.0594 40 23.0594C25.1417 23.0594 13.0963 19.0033 13.0963 14ZM40 21.7015C52.631 21.7015 62.8715 18.2534 62.8715 14C62.8715 9.74656 52.631 6.29838 40 6.29838C27.3688 6.29838 17.1286 9.74656 17.1286 14C17.1286 18.2534 27.3688 21.7015 40 21.7015ZM21.6607 14C21.6607 10.5894 29.8716 7.82463 40 7.82463C50.128 7.82463 58.339 10.5894 58.339 14C58.339 17.4106 50.128 20.1754 40 20.1754C29.8716 20.1754 21.6607 17.4106 21.6607 14ZM40 18.8176C47.9013 18.8176 54.3068 16.6606 54.3068 14C54.3068 11.3394 47.9013 9.18242 40 9.18242C32.0987 9.18242 25.6932 11.3394 25.6932 14C25.6932 16.6606 32.0987 18.8176 40 18.8176ZM30.2251 14C30.2251 12.1821 34.6015 10.7085 40 10.7085C45.3983 10.7085 49.7748 12.1821 49.7748 14C49.7748 15.8178 45.3983 17.2915 40 17.2915C34.6015 17.2915 30.2251 15.8178 30.2251 14ZM40 15.9337C43.1713 15.9337 45.7426 15.0679 45.7426 14C45.7426 12.9321 43.1713 12.0663 40 12.0663C36.8286 12.0663 34.2576 12.9321 34.2576 14C34.2576 15.0679 36.8286 15.9337 40 15.9337Z" fill="#FF3D00"/>
</svg>
